HIERARCHY
ROOT Hips
{
	OFFSET 0.00000 0.00000 0.00000
	CHANNELS 6 Xposition Yposition Zposition Zrotation Yrotation Xrotation 
	JOINT LHipJoint
	{
		OFFSET 0 0 0
		CHANNELS 3 Zrotation Yrotation Xrotation
		JOINT LeftHip
		{
			OFFSET 1.70593 -1.62653 0.87602
			CHANNELS 3 Zrotation Yrotation Xrotation
			JOINT LeftKnee
			{
				OFFSET 2.32330 -6.38322 0.00000
				CHANNELS 3 Zrotation Yrotation Xrotation
				JOINT LeftAnkle
				{
					OFFSET 2.45016 -6.73177 0.00000
					CHANNELS 3 Zrotation Yrotation Xrotation
					JOINT LeftToe
					{
						OFFSET 0.13029 -0.35798 1.96980
						CHANNELS 3 Zrotation Yrotation Xrotation
						End Site
						{
							OFFSET 0.00000 -0.00000 1.01270
						}
					}
				}
			}
		}
	}
	JOINT RHipJoint
	{
		OFFSET 0 0 0
		CHANNELS 3 Zrotation Yrotation Xrotation
		JOINT RightHip
		{
			OFFSET -1.80599 -1.62652 0.87602
			CHANNELS 3 Zrotation Yrotation Xrotation
			JOINT RightKnee
			{
				OFFSET -2.45375 -6.74162 0.00000
				CHANNELS 3 Zrotation Yrotation Xrotation
				JOINT RightAnkle
				{
					OFFSET -2.45828 -6.75406 0.00000
					CHANNELS 3 Zrotation Yrotation Xrotation
					JOINT RightToe
					{
						OFFSET -0.13801 -0.37917 1.88456
						CHANNELS 3 Zrotation Yrotation Xrotation
						End Site
						{
							OFFSET -0.00000 -0.00000 0.97281
						}
					}
				}
			}
		}
	}
	JOINT lowerback
	{
		OFFSET 0 0 0
		CHANNELS 3 Zrotation Yrotation Xrotation
		JOINT Chest
		{
			OFFSET 0.01003 2.00576 -0.14267
			CHANNELS 3 Zrotation Yrotation Xrotation
			JOINT Chest2
			{
				OFFSET 0.00908 2.01191 0.01660
				CHANNELS 3 Zrotation Yrotation Xrotation
				JOINT lowerneck
				{
					OFFSET 0 0 0
					CHANNELS 3 Zrotation Yrotation Xrotation
					JOINT Neck
					{
						OFFSET -0.05849 1.60301 0.18934
						CHANNELS 3 Zrotation Yrotation Xrotation
						JOINT Head
						{
							OFFSET 0.01775 1.59435 -0.07960
							CHANNELS 3 Zrotation Yrotation Xrotation
							End Site
							{
								OFFSET 0.01210 1.70732 -0.05248
							}
						}
					}
				}
				JOINT LeftCollar
				{
					OFFSET 0 0 0
					CHANNELS 3 Zrotation Yrotation Xrotation
					JOINT LeftShoulder
					{
						OFFSET 3.15315 1.26460 0.30667
CHANNELS 3 Zrotation Xrotation Yrotation
						JOINT LeftElbow
						{
OFFSET 0 -4.976940 -0.000000
CHANNELS 3 Zrotation Xrotation Yrotation
							JOINT LeftWrist
							{
OFFSET 0 -3.143910 -0.000000
CHANNELS 3 Zrotation Xrotation Yrotation
								JOINT lhand
								{
									OFFSET 0 0 0
CHANNELS 3 Zrotation Xrotation Yrotation
									JOINT LFingers
									{
OFFSET 0 -0.593580 -0.000000
CHANNELS 3 Zrotation Xrotation Yrotation
										End Site
										{
OFFSET 0 -0.478560 -0.000000
										}
									}
								}
								JOINT LThumb
								{
OFFSET 0 0.000000 0.000000
CHANNELS 3 Zrotation Xrotation Yrotation
									End Site
									{
OFFSET 0 -0.485870 0.485870
									}
								}
							}
						}
					}
				}
				JOINT RightCollar
				{
					OFFSET 0 0 0
					CHANNELS 3 Zrotation Yrotation Xrotation
					JOINT RightShoulder
					{
						OFFSET -3.25568 1.35581 0.18982
CHANNELS 3 Zrotation Xrotation Yrotation
						JOINT RightElbow
						{
OFFSET 0 -4.904730 0.000000
CHANNELS 3 Zrotation Xrotation Yrotation
							JOINT RightWrist
							{
OFFSET 0 -3.216210 -0.000040
CHANNELS 3 Zrotation Xrotation Yrotation
								JOINT rhand
								{
									OFFSET 0 0 0
CHANNELS 3 Zrotation Xrotation Yrotation
									JOINT RFingers
									{
OFFSET 0 -0.623530 -0.000000
CHANNELS 3 Zrotation Xrotation Yrotation
										End Site
										{
OFFSET 0 -0.502700 -0.000000
										}
									}
								}
								JOINT RThumb
								{
OFFSET 0 0.000000 0.000000
CHANNELS 3 Zrotation Xrotation Yrotation
									End Site
									{
OFFSET 0 -0.510380 0.510380
									}
								}
							}
						}
					}
				}
			}
		}
	}
}
MOTION
Frames: 12
Frame Time: 0.008333333333333333
7.625200 15.361800 -36.165800 2.376500 -5.192100 6.972700 0.000000 0.000000 0.000000 -27.788800 -2.038700 -10.216600 2.376600 9.610100 27.723000 0.625500 -12.991600 -15.677600 0.028600 1.091500 3.000700 0.000000 0.000000 0.000000 17.460000 14.453300 -35.966700 -7.071300 -15.391600 49.143500 -1.292900 8.634600 -20.364700 -0.341100 3.753000 -10.382800 -3.543300 1.090100 -0.500500 -0.079100 1.404400 -3.370800 1.868500 0.800500 -3.272700 -1.886800 0.787400 -7.621400 3.264200 0.796100 16.327500 1.408100 0.523100 6.176700 0.000000 -0.000000 0.000000 3.905000 -14.211400 -45.028000 21.234200 -32.100700 6.173900 27.984500 -23.335800 16.376400 0.000000 0.000000 0.000000 -7.125000 0.000000 0.000000 0.133300 11.573400 0.103900 0.000000 -0.000000 0.000000 -0.088900 22.964000 13.226300 -12.448800 -20.474300 -2.256800 -23.062300 23.531500 33.507700 0.000000 0.000000 0.000000 7.125000 0.000000 -0.000000 12.328400 65.320700 -6.097100
7.629009 15.360302 -36.059844 2.347529 -4.849319 6.893030 0.000000 0.000000 0.000000 -27.776437 -1.886290 -9.396173 2.274765 9.414733 27.102747 0.557381 -13.365912 -15.210006 0.070058 1.650939 4.543216 0.000000 0.000000 0.000000 17.321451 14.682008 -36.412503 -6.869190 -15.219273 48.375270 -1.257810 8.635661 -20.088852 -0.350778 3.804948 -10.528591 -3.413305 0.920957 -0.505495 -0.031460 1.182810 -3.315043 1.851330 0.685053 -3.196714 -1.658654 0.870192 -7.685086 3.066336 0.907925 16.452125 1.317378 0.576422 6.227025 0.000000 0.000000 0.000000 4.020072 -14.790382 -45.492784 21.613133 -32.535452 6.377259 27.810425 -23.290595 16.282806 0.000000 0.000000 0.000000 -7.125000 0.000000 0.000000 0.027656 11.704331 0.021670 0.000000 0.000000 0.000000 -0.068358 22.991847 12.753961 -12.412274 -20.420042 -2.244063 -22.729009 23.829202 33.510947 0.000000 0.000000 0.000000 7.125000 0.000000 0.000000 12.733868 65.229978 -6.273423
7.632195 15.358231 -35.953738 2.389227 -4.502632 6.816867 0.000000 0.000000 0.000000 -27.830565 -1.693360 -8.603904 2.176561 9.223322 26.497369 0.495331 -13.739603 -14.800769 0.105124 2.083716 5.737335 0.000000 0.000000 0.000000 17.104323 14.879051 -36.879872 -6.665737 -15.042568 47.596195 -1.218218 8.592023 -19.770915 -0.378291 3.945201 -10.923155 -3.386267 0.746317 -0.481809 0.020657 0.950971 -3.285430 1.895948 0.568487 -3.165626 -1.599358 0.934054 -7.715987 2.986851 0.998010 16.569387 1.290411 0.617853 6.267996 0.000000 0.000000 0.000000 4.098155 -15.331007 -45.914211 21.973036 -32.945577 6.571637 27.725699 -23.364143 16.323611 0.000000 0.000000 0.000000 -7.125000 0.000000 0.000000 -0.032641 11.672631 -0.025337 0.000000 0.000000 0.000000 -0.101695 23.081334 12.471541 -12.441144 -20.462795 -2.254235 -22.088067 23.474213 33.340543 0.000000 0.000000 0.000000 7.125000 0.000000 0.000000 13.353583 64.886231 -6.470343
7.634443 15.355296 -35.847407 2.537641 -4.150048 6.746001 0.000000 0.000000 0.000000 -27.985098 -1.439239 -7.854155 2.083841 9.037883 25.914453 0.442447 -14.112354 -14.479653 0.130536 2.325224 6.405353 0.000000 0.000000 0.000000 16.768535 15.028276 -37.379809 -6.460256 -14.859251 46.800743 -1.171827 8.480884 -19.389423 -0.432736 4.218802 -11.693383 -3.514701 0.563375 -0.414814 0.079535 0.703656 -3.295295 2.033873 0.450231 -3.202340 -1.795036 0.969331 -7.697381 3.086126 1.055265 16.675531 1.359717 0.641329 6.294844 0.000000 0.000000 0.000000 4.120383 -15.813711 -46.270167 22.304204 -33.318516 6.752456 27.775899 -23.617014 16.567367 0.000000 0.000000 0.000000 -7.125000 0.000000 0.000000 -0.024462 11.395347 -0.019156 0.000000 0.000000 0.000000 -0.216392 23.263901 12.475912 -12.568766 -20.652043 -2.299003 -20.982550 22.133620 32.907914 0.000000 0.000000 0.000000 7.125000 0.000000 0.000000 14.296825 64.160396 -6.698364
7.635895 15.354998 -35.740927 2.756003 -3.852437 6.680806 0.000000 0.000000 0.000000 -28.210374 -1.110694 -7.199976 2.005102 8.875577 25.407655 0.431203 -14.266107 -14.446041 0.093164 1.912624 5.265869 0.000000 0.000000 0.000000 16.351655 15.188695 -37.848154 -6.239352 -14.654195 45.930964 -1.106780 8.281689 -18.834354 -0.439074 4.251764 -11.786022 -3.703879 0.450680 -0.375032 0.070655 0.548379 -3.302175 2.134335 0.378391 -3.224974 -1.985491 0.953665 -7.584201 3.215451 1.038742 16.609441 1.429569 0.630827 6.252391 0.000000 0.000000 0.000000 4.248975 -16.314125 -46.848105 22.659998 -33.713344 6.949344 27.881171 -24.157040 16.846793 0.000000 0.000000 0.000000 -7.125000 0.000000 0.000000 0.015507 11.069407 0.012447 0.000000 0.000000 0.000000 -0.215770 23.450547 12.175268 -12.653405 -20.777214 -2.328945 -20.528306 21.652699 33.239787 0.000000 0.000000 0.000000 7.125000 0.000000 0.000000 15.120220 64.354779 -7.171004
7.636668 15.355556 -35.634555 2.952632 -3.578755 6.619251 0.000000 0.000000 0.000000 -28.405822 -0.761559 -6.554108 1.920531 8.697101 24.853216 0.419963 -14.354199 -14.382466 0.050419 1.449408 3.986367 0.000000 0.000000 0.000000 15.953579 15.377062 -38.304993 -6.020742 -14.447700 45.063594 -1.039083 8.036576 -18.246473 -0.427402 4.194533 -11.624711 -3.871537 0.361238 -0.358069 0.050063 0.425409 -3.294255 2.210132 0.321204 -3.220521 -2.118871 0.917389 -7.442087 3.302252 0.994091 16.462914 1.473323 0.606577 6.180954 0.000000 0.000000 0.000000 4.428873 -16.822980 -47.501948 23.047458 -34.139445 7.165454 27.964002 -24.752983 17.099657 0.000000 0.000000 0.000000 -7.125000 0.000000 0.000000 0.043329 10.776455 0.034447 0.000000 0.000000 0.000000 -0.161620 23.630727 11.925919 -12.706265 -20.855294 -2.347709 -20.612128 21.370855 33.482324 0.000000 0.000000 0.000000 7.125000 0.000000 0.000000 15.235808 64.609453 -7.321616
7.635482 15.356867 -35.528786 2.986099 -3.345926 6.566741 0.000000 0.000000 0.000000 -28.403887 -0.405790 -5.842009 1.797217 8.427621 24.022299 0.364956 -14.401838 -13.893020 0.051543 1.465329 4.030261 0.000000 0.000000 0.000000 15.718315 15.668894 -38.747612 -5.827811 -14.258140 44.284313 -0.980080 7.694732 -17.705828 -0.392063 4.018459 -11.128833 -3.886584 0.293806 -0.406583 0.052436 0.338871 -3.228446 2.223619 0.275624 -3.119185 -2.022405 0.849707 -7.280124 3.182123 0.911050 16.165837 1.408888 0.561372 6.062885 0.000000 0.000000 0.000000 4.708468 -17.348016 -48.235338 23.539589 -34.671474 7.443925 27.896382 -25.277519 17.205488 0.000000 0.000000 0.000000 -7.125000 0.000000 0.000000 -0.012365 10.670686 -0.009883 0.000000 0.000000 0.000000 -0.008024 23.779952 12.208823 -12.673298 -20.806593 -2.335971 -22.229694 21.005846 32.552568 0.000000 0.000000 0.000000 7.125000 0.000000 0.000000 12.558929 64.145044 -5.887180
7.633406 15.352137 -35.423833 2.665811 -3.056318 6.625194 0.000000 0.000000 0.000000 -27.977890 -0.248821 -5.261813 1.687134 8.179044 23.260687 0.214848 -14.892329 -12.695730 0.303353 2.949786 8.190309 0.000000 0.000000 0.000000 15.841439 16.032738 -39.230739 -5.621277 -14.048901 43.438024 -0.935197 7.320717 -17.281816 -0.340193 3.737612 -10.340797 -3.574006 0.178193 -0.512135 0.196792 0.196666 -3.206333 2.200562 0.196430 -3.025706 -1.897328 0.859558 -7.221453 3.082970 0.924183 16.073638 1.356201 0.567127 6.024758 0.000000 0.000000 0.000000 4.867871 -17.766463 -48.676088 24.074231 -35.239268 7.750748 27.831282 -25.504339 17.225299 0.000000 0.000000 0.000000 -7.125000 0.000000 0.000000 -0.057163 10.659573 -0.045541 0.000000 0.000000 0.000000 -0.011459 23.911314 12.566406 -12.604789 -20.705301 -2.311743 -23.314015 20.353979 31.280548 0.000000 0.000000 0.000000 7.125000 0.000000 0.000000 10.365744 63.169923 -4.632048
7.630722 15.343271 -35.319437 2.103312 -2.727835 6.759622 0.000000 0.000000 0.000000 -27.261546 -0.227967 -4.771930 1.586110 7.944779 22.546529 -0.000374 -15.686033 -11.013791 0.726803 5.439727 15.168624 0.000000 0.000000 0.000000 16.209944 16.445886 -39.741602 -5.405431 -13.826186 42.545856 -0.899982 6.924677 -16.937661 -0.277007 3.385028 -9.352726 -3.037107 0.029592 -0.656740 0.438362 0.016346 -3.214137 2.152486 0.094220 -2.937607 -1.752660 0.922495 -7.233503 2.998180 1.003166 16.121714 1.311558 0.607774 6.041367 0.000000 0.000000 0.000000 4.944981 -18.111929 -48.916472 24.637978 -35.831549 8.076983 27.767908 -25.527316 17.186214 0.000000 0.000000 0.000000 -7.125000 0.000000 0.000000 -0.094501 10.713269 -0.075262 0.000000 0.000000 0.000000 -0.122410 24.030444 12.975122 -12.511945 -20.568001 -2.278963 -24.033231 19.505704 29.774183 0.000000 0.000000 0.000000 7.125000 0.000000 0.000000 8.503736 61.845127 -3.499683
7.638814 15.314090 -35.185870 2.770316 -2.482904 6.375269 0.000000 0.000000 0.000000 -27.970424 0.082750 -3.617095 1.480999 7.685987 21.765788 -0.312650 -16.868328 -8.429437 1.995874 8.469569 24.386566 0.000000 0.000000 0.000000 15.429217 16.101612 -39.946560 -5.230649 -13.637414 41.806920 -0.838878 7.159460 -16.370472 -0.213139 2.952546 -8.148062 -3.541485 -0.107860 -0.736312 0.284653 -0.169361 -3.046290 2.279875 0.005574 -2.708416 -1.913340 0.909808 -7.048348 2.929184 1.019718 15.894112 1.313925 0.599677 5.936765 0.000000 0.000000 0.000000 4.814109 -18.447857 -48.875726 25.069862 -36.273324 8.331991 27.724912 -25.168640 17.137961 0.000000 0.000000 0.000000 -7.125000 0.000000 0.000000 -0.117655 10.773531 -0.093524 0.000000 0.000000 0.000000 -0.250456 24.139541 12.914296 -12.596734 -20.693498 -2.308925 -23.135779 19.096994 30.405992 0.000000 0.000000 0.000000 7.125000 0.000000 0.000000 9.948707 62.251643 -4.204605
7.642557 15.299295 -35.061548 3.319421 -2.286520 6.103643 0.000000 0.000000 0.000000 -28.548556 0.758227 -2.578826 1.377780 7.425193 20.982413 -0.392720 -17.215739 -7.803131 2.177927 8.703136 25.187425 0.000000 0.000000 0.000000 14.742761 15.954492 -40.187239 -5.042964 -13.430245 41.004484 -0.774762 7.253077 -15.750855 -0.158040 2.549544 -7.027565 -3.993519 -0.203275 -0.819647 0.156217 -0.297395 -2.914461 2.402761 -0.054518 -2.517619 -1.994544 0.902651 -6.933574 2.923980 1.022261 15.768210 1.323814 0.594792 5.876714 0.000000 0.000000 0.000000 4.699006 -18.848420 -48.886012 25.464607 -36.674153 8.566242 27.618829 -24.786964 17.053122 0.000000 0.000000 0.000000 -7.125000 0.000000 0.000000 -0.178547 10.884202 -0.141356 0.000000 0.000000 0.000000 -0.285239 24.235907 12.732288 -12.687445 -20.827555 -2.341076 -22.365405 18.823359 31.012413 0.000000 0.000000 0.000000 7.125000 0.000000 0.000000 11.245657 62.660922 -4.862108
7.639373 15.307225 -34.952033 3.668883 -2.164891 6.014607 0.000000 0.000000 0.000000 -28.904512 1.999670 -1.730989 1.277568 7.161582 20.195764 -0.108942 -16.254452 -10.245994 0.651770 4.563100 12.815517 0.000000 0.000000 0.000000 14.218037 16.124821 -40.487563 -4.834611 -13.193919 40.100953 -0.706268 7.118274 -15.052181 -0.116644 2.193588 -6.041241 -4.350661 -0.233183 -0.909682 0.072239 -0.335294 -2.841097 2.516397 -0.070190 -2.388561 -1.947778 0.905086 -6.931201 3.018198 1.003717 15.804611 1.344855 0.595542 5.887766 0.000000 0.000000 0.000000 4.611156 -19.350042 -48.979543 25.803018 -37.012938 8.768976 27.413972 -24.374190 16.911265 0.000000 0.000000 0.000000 -7.125000 0.000000 0.000000 -0.298551 11.073512 -0.235512 0.000000 0.000000 0.000000 -0.174163 24.312518 12.366967 -12.785160 -20.971661 -2.375854 -21.813895 18.755115 31.552184 0.000000 0.000000 0.000000 7.125000 0.000000 0.000000 12.269693 63.052654 -5.422358
